<?xml version="1.0" encoding="UTF-8"?>
<svg id="Camada_1" data-name="Camada 1" xmlns="http://www.w3.org/2000/svg" viewBox="0 0 36 36">
  <defs>
    <style>
      .cls-1 {
        fill: gray;
        stroke-width: 0px;
      }
    </style>
  </defs>
  <path class="cls-1" d="m33.8,36l-13.15-13.15c-1,.87-2.17,1.54-3.5,2.03s-2.75.73-4.25.73c-3.61,0-6.66-1.25-9.15-3.75S0,16.33,0,12.8,1.25,6.25,3.75,3.75,9.28,0,12.83,0s6.57,1.25,9.05,3.75c2.48,2.5,3.73,5.52,3.73,9.06,0,1.43-.23,2.81-.7,4.14-.47,1.33-1.17,2.58-2.1,3.75l13.2,13.1-2.2,2.2Zm-20.95-13.4c2.71,0,5.01-.96,6.91-2.88,1.9-1.92,2.84-4.23,2.84-6.93s-.95-5.01-2.84-6.93c-1.9-1.92-4.2-2.88-6.91-2.88s-5.06.96-6.98,2.88c-1.92,1.92-2.87,4.23-2.87,6.93s.96,5.01,2.87,6.93c1.92,1.92,4.24,2.88,6.98,2.88Z"/>
</svg>